<svg xmlns="http://www.w3.org/2000/svg" viewBox="0 0 192 192"><circle cx="96" cy="96" r="96" fill="#101827"/><circle cx="96" cy="96" r="86.4" fill="none" stroke="#fff" stroke-miterlimit="10" stroke-width="5"/><path d="m30.41 111.33.72 2.35-4.24 1.32 1.25 4.08 4.24-1.3.71 2.34-10 3.07-.71-2.34 4.19-1.28-1.25-4.08-4.19 1.29-.72-2.34ZM29.35 104.83a1.06 1.06 0 0 1 0 .48.64.64 0 0 1-.31.33l-.38.22c.19.16.35.32.5.47a2.93 2.93 0 0 1 .39.48 2.37 2.37 0 0 1 .28.55 3.85 3.85 0 0 1 .17.64 2.72 2.72 0 0 1 0 .94 1.91 1.91 0 0 1-.27.77 1.7 1.7 0 0 1-.56.54 2.44 2.44 0 0 1-.86.31 1.9 1.9 0 0 1-.84-.07 2 2 0 0 1-.86-.57 4.36 4.36 0 0 1-.79-1.22 8.46 8.46 0 0 1-.57-2.06h-.32a1.41 1.41 0 0 0-.9.42 1 1 0 0 0-.16.81 2 2 0 0 0 .19.62 2.17 2.17 0 0 0 .27.42c.09.11.17.23.25.34a1.1 1.1 0 0 1 .16.43.7.7 0 0 1-.05.41.73.73 0 0 1-.23.29l-.62.51a4.63 4.63 0 0 1-1.13-1.33 5.25 5.25 0 0 1-.57-1.7 3 3 0 0 1 0-1.24 2.51 2.51 0 0 1 .45-1 2.71 2.71 0 0 1 .82-.72 3.49 3.49 0 0 1 1.14-.39l4.6-.76Zm-.93 2.75a1.67 1.67 0 0 0-.27-.72 2.15 2.15 0 0 0-.59-.57l-1 .17a5.17 5.17 0 0 0 .27 1.07 2.71 2.71 0 0 0 .32.64.82.82 0 0 0 .35.29.71.71 0 0 0 .38 0 .64.64 0 0 0 .5-.29 1 1 0 0 0 .04-.59ZM29.08 102.48l-7.45.5-.09-1.33a1.24 1.24 0 0 1 0-.28.41.41 0 0 1 .08-.19.44.44 0 0 1 .15-.12A1.34 1.34 0 0 1 22 101l.69-.17a3.67 3.67 0 0 1-1.06-.85 1.87 1.87 0 0 1-.44-1.09 1.32 1.32 0 0 1 .21-.89l1.66.18a.36.36 0 0 1 .22.11.36.36 0 0 1 .07.22 1.48 1.48 0 0 1 0 .29 1.94 1.94 0 0 0 0 .42 1.54 1.54 0 0 0 1 1.32l4.57-.3ZM28.76 96.73l-7.46-.15v-1.32a1.14 1.14 0 0 1 0-.28.51.51 0 0 1 .09-.18.39.39 0 0 1 .17-.11 1.15 1.15 0 0 1 .24-.07l.7-.11a3.68 3.68 0 0 1-1-.94 1.83 1.83 0 0 1-.34-1.12 1.26 1.26 0 0 1 .26-.82l1.63.32a.31.31 0 0 1 .21.12.41.41 0 0 1 .06.23 1.11 1.11 0 0 1 0 .29 2.3 2.3 0 0 0 0 .42 1.54 1.54 0 0 0 .91 1.4l4.58.09ZM19.73 87.55a1 1 0 0 1 .49.15 1.51 1.51 0 0 1 .38.33 1.83 1.83 0 0 1 .24.46 1.38 1.38 0 0 1 .05.54 1.08 1.08 0 0 1-.15.5 1.34 1.34 0 0 1-.32.39 1.31 1.31 0 0 1-.43.25 1.09 1.09 0 0 1-.51.06 1.39 1.39 0 0 1-.5-.15 1.37 1.37 0 0 1-.39-.33 1.26 1.26 0 0 1-.24-.44 1.3 1.3 0 0 1-.05-.52 1.49 1.49 0 0 1 .15-.52 1.42 1.42 0 0 1 .32-.41 1.29 1.29 0 0 1 .44-.25 1.13 1.13 0 0 1 .52-.06Zm2 .44 7.44.69L29 90.9l-7.43-.68ZM24.35 81.59a.59.59 0 0 1 .16.21.45.45 0 0 1 0 .26.73.73 0 0 1-.11.3l-.21.31a3.44 3.44 0 0 0-.21.39 2.1 2.1 0 0 0-.16.5 1.1 1.1 0 0 0 .06.67.5.5 0 0 0 .4.3.48.48 0 0 0 .37-.09 1.55 1.55 0 0 0 .3-.35 4.63 4.63 0 0 0 .29-.51c.09-.19.2-.39.31-.59a5.15 5.15 0 0 1 .37-.58 2.38 2.38 0 0 1 .47-.48 1.59 1.59 0 0 1 .61-.3 1.89 1.89 0 0 1 .79 0 2.57 2.57 0 0 1 1 .36 2.22 2.22 0 0 1 .7.73 2.88 2.88 0 0 1 .35 1.06 4.21 4.21 0 0 1 0 1.36 4 4 0 0 1-.2.75 5.37 5.37 0 0 1-.31.69 3.68 3.68 0 0 1-.4.6 2.69 2.69 0 0 1-.44.45l-.78-.63a.64.64 0 0 1-.19-.25.66.66 0 0 1 0-.35.63.63 0 0 1 .15-.33l.24-.3a4.18 4.18 0 0 0 .25-.38 2 2 0 0 0 .21-1 .87.87 0 0 0-.1-.31.66.66 0 0 0-.18-.19.5.5 0 0 0-.23-.09.47.47 0 0 0-.38.09 1.19 1.19 0 0 0-.31.35 4.84 4.84 0 0 0-.29.52c-.09.19-.19.39-.31.59a4.12 4.12 0 0 1-.38.58 2 2 0 0 1-.49.48 1.77 1.77 0 0 1-.67.29 2.34 2.34 0 0 1-.88 0 2.48 2.48 0 0 1-.86-.33 2.08 2.08 0 0 1-.65-.67 2.7 2.7 0 0 1-.36-1 4.17 4.17 0 0 1 0-1.31 3.77 3.77 0 0 1 .2-.75 3.45 3.45 0 0 1 .32-.67 2.8 2.8 0 0 1 .4-.54 3 3 0 0 1 .46-.42ZM24 75.82a4.54 4.54 0 0 1 .67-1.42 3.41 3.41 0 0 1 2.4-1.4 4.81 4.81 0 0 1 3.09.87 3.36 3.36 0 0 1 1 1.07 3.54 3.54 0 0 1 .42 1.37 4.06 4.06 0 0 1-.16 1.56 4.21 4.21 0 0 1-.68 1.43 3.33 3.33 0 0 1-2.45 1.38 4.68 4.68 0 0 1-3.08-.86 3.36 3.36 0 0 1-1.36-2.45 4.37 4.37 0 0 1 .15-1.55Zm5.82 1.63a1.26 1.26 0 0 0-.22-1.23 2.93 2.93 0 0 0-1.49-.8 3.06 3.06 0 0 0-1.69-.1 1.5 1.5 0 0 0-.62 2.21 2.93 2.93 0 0 0 1.49.8 3 3 0 0 0 1.69.09 1.27 1.27 0 0 0 .81-.97ZM32.64 73.31l-6.89-2.87.53-1.27a.61.61 0 0 1 .22-.29.45.45 0 0 1 .33-.07h.45c-.07-.18-.12-.37-.17-.55a2.24 2.24 0 0 1-.08-.57 3.13 3.13 0 0 1 0-.6 3.59 3.59 0 0 1 .2-.64 2.55 2.55 0 0 1 .61-.92 2.38 2.38 0 0 1 .85-.51 2.65 2.65 0 0 1 1-.1 3.62 3.62 0 0 1 1.11.28l4.38 1.82-.86 2.06L30 67.3a1.27 1.27 0 0 0-.88-.09.9.9 0 0 0-.57.56 1.7 1.7 0 0 0-.12.7 2.89 2.89 0 0 0 .16.74l4.91 2ZM42 55.82l-1.33 2-3.73-2.4-2.3 3.59 3.73 2.4L37 63.52l-8.82-5.68 1.32-2.06 3.69 2.38 2.31-3.59-3.7-2.37 1.32-2.06ZM37.14 46.78a1.08 1.08 0 0 1 .32.39 1.44 1.44 0 0 1 .14.49 1.57 1.57 0 0 1-.06.52 1.26 1.26 0 0 1-.25.47 1.17 1.17 0 0 1-.4.34 1.41 1.41 0 0 1-.48.15 1.39 1.39 0 0 1-.5 0 1.35 1.35 0 0 1-.46-.24 1.16 1.16 0 0 1-.33-.4A1.34 1.34 0 0 1 35 48a1.35 1.35 0 0 1 .29-1 1.5 1.5 0 0 1 .41-.35 1.28 1.28 0 0 1 .49-.16 1.45 1.45 0 0 1 .51 0 1.11 1.11 0 0 1 .44.29Zm1.43 1.48 5.82 4.68L43 54.68 37.17 50ZM41.7 44.54a4.62 4.62 0 0 1 .69-.58 3.4 3.4 0 0 1 .73-.38L44.67 42l.59.56a.38.38 0 0 1 .14.28.63.63 0 0 1-.12.37l-.29.48a2.12 2.12 0 0 1 .55.39 2.16 2.16 0 0 1 .57.86 2.21 2.21 0 0 1 .11 1 3.19 3.19 0 0 1-.31 1 4.54 4.54 0 0 1-.7 1 5 5 0 0 1-.49.45.4.4 0 0 0 .07.4.29.29 0 0 0 .34 0 1.91 1.91 0 0 0 .44-.3 6.14 6.14 0 0 0 .54-.51c.19-.21.4-.4.61-.59a5.67 5.67 0 0 1 .69-.52 2.17 2.17 0 0 1 .73-.33 1.63 1.63 0 0 1 .76 0 1.93 1.93 0 0 1 .79.48 2.18 2.18 0 0 1 .54.86 2.7 2.7 0 0 1 .13 1.12 3.81 3.81 0 0 1-.36 1.25 5.29 5.29 0 0 1-.93 1.31 6.1 6.1 0 0 1-1.16 1 3.74 3.74 0 0 1-1 .46A1.76 1.76 0 0 1 46 53a1.37 1.37 0 0 1-.67-.36 1.21 1.21 0 0 1-.4-.79 1.92 1.92 0 0 1 .18-1 1.26 1.26 0 0 1-.58 0 1.14 1.14 0 0 1-.58-.34 1 1 0 0 1-.21-.28 1.18 1.18 0 0 1-.14-.37 2.26 2.26 0 0 1 0-.46 2 2 0 0 1 .1-.51 2.48 2.48 0 0 1-1.23.1 2.29 2.29 0 0 1-1.66-1.45 2.41 2.41 0 0 1-.1-1 3.27 3.27 0 0 1 .32-1 4.42 4.42 0 0 1 .67-1Zm2.51 2.4a1 1 0 0 0 .36-.78 1.05 1.05 0 0 0-.35-.67 1 1 0 0 0-.69-.31 1 1 0 0 0-.74.4 1.11 1.11 0 0 0-.37.76 1.22 1.22 0 0 0 .68.9.73.73 0 0 0 .36.08.84.84 0 0 0 .37-.09 1.24 1.24 0 0 0 .38-.29Zm4.32 1.82a.44.44 0 0 0-.29-.12.77.77 0 0 0-.34.1 1.85 1.85 0 0 0-.37.25 3.55 3.55 0 0 0-.4.38l-.43.45a3.73 3.73 0 0 1-.47.41 1.49 1.49 0 0 0 0 .47.71.71 0 0 0 .2.37.68.68 0 0 0 .26.15.55.55 0 0 0 .33 0 1.56 1.56 0 0 0 .42-.24 3.74 3.74 0 0 0 .55-.49 5.44 5.44 0 0 0 .51-.62 1.77 1.77 0 0 0 .22-.47.69.69 0 0 0 0-.35.8.8 0 0 0-.19-.29ZM50.43 46.48l-6.9-8.28 1.71-1.43 2.54 3a3.7 3.7 0 0 1 .32-1 3.08 3.08 0 0 1 1.69-1.42 2.23 2.23 0 0 1 1 0 2.58 2.58 0 0 1 1 .37 4.06 4.06 0 0 1 .85.77l3 3.64-1.72 1.43-3-3.64a1.29 1.29 0 0 0-.73-.5 1 1 0 0 0-.77.25 1.48 1.48 0 0 0-.43.56 2.4 2.4 0 0 0-.2.72l3.4 4.09ZM59.66 29.68a1.09 1.09 0 0 1-.06.34.6.6 0 0 1-.22.23.8.8 0 0 1-.36.09h-.49a5 5 0 0 0-.6.08 2.56 2.56 0 0 0-.66.27 1.51 1.51 0 0 0-.72.78 1 1 0 0 0 .11.84.71.71 0 0 0 .45.35 1.65 1.65 0 0 0 .64 0 5 5 0 0 0 .78-.14c.29-.08.58-.14.89-.2a7 7 0 0 1 .92-.13 2.84 2.84 0 0 1 .92.07 2.56 2.56 0 0 1 .85.41 2.67 2.67 0 0 1 .75.86 3.49 3.49 0 0 1 .48 1.29 3.31 3.31 0 0 1-.06 1.33 3.39 3.39 0 0 1-.63 1.24 4.5 4.5 0 0 1-1.24 1 5.3 5.3 0 0 1-.9.42 6 6 0 0 1-1 .26 5.66 5.66 0 0 1-1 .08 3.41 3.41 0 0 1-.92-.11V37.7a.64.64 0 0 1 .31-.52.87.87 0 0 1 .44-.11H59a4.6 4.6 0 0 0 .7-.07 2.27 2.27 0 0 0 .8-.32 1.57 1.57 0 0 0 .73-.77 1.12 1.12 0 0 0-.16-1 .87.87 0 0 0-.48-.41 1.49 1.49 0 0 0-.64-.05 4.09 4.09 0 0 0-.78.15l-.87.22a6.89 6.89 0 0 1-.91.14 2.59 2.59 0 0 1-.92-.08 2.54 2.54 0 0 1-.88-.45 3.18 3.18 0 0 1-.81-1 3 3 0 0 1-.29-2.32 3.29 3.29 0 0 1 .61-1.19 4.26 4.26 0 0 1 1.18-1 6.49 6.49 0 0 1 .84-.41 4.94 4.94 0 0 1 .86-.26 6.32 6.32 0 0 1 .84-.09 4 4 0 0 1 .79.08ZM68 28.65a1.28 1.28 0 0 1-.1.26.38.38 0 0 1-.21.17.54.54 0 0 1-.3.06h-.35a3.07 3.07 0 0 0-.43 0 1.94 1.94 0 0 0-.53.16 1.56 1.56 0 0 0-.58.44 1.27 1.27 0 0 0-.27.6 2.07 2.07 0 0 0 0 .74 4.51 4.51 0 0 0 .3.87 2.87 2.87 0 0 0 1.07 1.33 1.32 1.32 0 0 0 1.28 0 1.56 1.56 0 0 0 .52-.34 2 2 0 0 0 .26-.36l.17-.32a.49.49 0 0 1 .26-.23.45.45 0 0 1 .45 0l.92.45a3.63 3.63 0 0 1-.39.89 3.34 3.34 0 0 1-.55.68 3.47 3.47 0 0 1-.65.51 4.64 4.64 0 0 1-.69.38 3.22 3.22 0 0 1-1.29.31 3.1 3.1 0 0 1-1.33-.25 3.39 3.39 0 0 1-1.19-.79 4.42 4.42 0 0 1-.94-1.37A4.77 4.77 0 0 1 63 31.4a3.44 3.44 0 0 1 .14-1.4 3.22 3.22 0 0 1 .72-1.23 4.27 4.27 0 0 1 1.34-.94 4.12 4.12 0 0 1 1.52-.39 3.79 3.79 0 0 1 1.43.25ZM71.61 33.29 68.2 23.06l2.12-.7 1.25 3.76a4 4 0 0 1 .66-.8 2.67 2.67 0 0 1 1-.56 2.53 2.53 0 0 1 1.1-.14 2.23 2.23 0 0 1 .94.31 2.6 2.6 0 0 1 .75.7 3.89 3.89 0 0 1 .51 1l1.5 4.5-2.12.71-1.5-4.5a1.24 1.24 0 0 0-.51-.73.88.88 0 0 0-.8-.06 1.55 1.55 0 0 0-.6.37 2.55 2.55 0 0 0-.45.6l1.67 5.05ZM81 22.73a4.41 4.41 0 0 1 1.57-.05 3.35 3.35 0 0 1 1.33.51 3.48 3.48 0 0 1 1 1 4.78 4.78 0 0 1 .64 3.14A3.33 3.33 0 0 1 84 29.7a4.38 4.38 0 0 1-1.47.57 4.24 4.24 0 0 1-1.58.05 3.33 3.33 0 0 1-2.35-1.55 4.2 4.2 0 0 1-.59-1.52 4.25 4.25 0 0 1 0-1.62 3.28 3.28 0 0 1 .53-1.34 3.37 3.37 0 0 1 1-1 4.38 4.38 0 0 1 1.46-.56Zm1.21 5.92a1.26 1.26 0 0 0 1-.76 2.93 2.93 0 0 0 0-1.69 3 3 0 0 0-.69-1.55 1.28 1.28 0 0 0-1.22-.3 1.33 1.33 0 0 0-1 .76 3 3 0 0 0 0 1.69 2.87 2.87 0 0 0 .7 1.55 1.29 1.29 0 0 0 1.24.3ZM89.91 21.46a4.42 4.42 0 0 1 1.56.14 3.45 3.45 0 0 1 1.26.66 3.53 3.53 0 0 1 .87 1.14A4.48 4.48 0 0 1 94 25a4.27 4.27 0 0 1-.15 1.62 3.27 3.27 0 0 1-.67 1.28 3.39 3.39 0 0 1-1.13.87A4.51 4.51 0 0 1 89 29a3.45 3.45 0 0 1-1.27-.67 3.48 3.48 0 0 1-.88-1.14 4.53 4.53 0 0 1-.41-1.58 4.27 4.27 0 0 1 .11-1.61 3.35 3.35 0 0 1 1.82-2.12 4.42 4.42 0 0 1 1.54-.42Zm.49 6a1.3 1.3 0 0 0 1.09-.64 3 3 0 0 0 .22-1.68 3 3 0 0 0-.49-1.61 1.29 1.29 0 0 0-1.22-.42 1.32 1.32 0 0 0-1.11.64 3 3 0 0 0-.23 1.67A3 3 0 0 0 89.2 27a1.32 1.32 0 0 0 1.2.49ZM97.71 18l-.07 10.8H95.4l.08-10.8ZM109.26 27.26a.49.49 0 0 1 .17.06.58.58 0 0 1 .15.13l.81 1.15a4.11 4.11 0 0 1-1.75 1 5.79 5.79 0 0 1-2.3.09 5.64 5.64 0 0 1-2.06-.71 4.62 4.62 0 0 1-1.43-1.35 4.84 4.84 0 0 1-.75-1.82 6.29 6.29 0 0 1 0-2.17 5.77 5.77 0 0 1 .71-2.07 5 5 0 0 1 3.19-2.36 6.28 6.28 0 0 1 2.26-.07 6.83 6.83 0 0 1 1.08.26 6.6 6.6 0 0 1 .93.43 4.81 4.81 0 0 1 .76.56 4 4 0 0 1 .59.65l-1 1a1.12 1.12 0 0 1-.22.16.49.49 0 0 1-.31 0 .65.65 0 0 1-.23-.09 1.74 1.74 0 0 1-.22-.18l-.26-.22a1.55 1.55 0 0 0-.34-.23 3.59 3.59 0 0 0-.47-.21 3.29 3.29 0 0 0-.65-.15 2.8 2.8 0 0 0-1.23.06 2.6 2.6 0 0 0-1 .52 2.92 2.92 0 0 0-.76 1 3.9 3.9 0 0 0-.42 1.34 4.38 4.38 0 0 0 0 1.45 3.25 3.25 0 0 0 .44 1.13 2.49 2.49 0 0 0 .78.77 2.66 2.66 0 0 0 1 .38 4.41 4.41 0 0 0 .6.05 2.24 2.24 0 0 0 .52 0 2.54 2.54 0 0 0 .47-.14 3.09 3.09 0 0 0 .47-.25.72.72 0 0 1 .2-.09.5.5 0 0 1 .27-.08ZM113.36 33.07a.8.8 0 0 1-.32.25.85.85 0 0 1-.47 0l-1.57-.47 2.19-2.53L112.1 23l1.9.53a.59.59 0 0 1 .36.22.63.63 0 0 1 .12.31l.32 3.43a7.44 7.44 0 0 1 0 .94c.09-.14.18-.27.28-.4l.28-.39 1.92-2.79a.53.53 0 0 1 .29-.21.7.7 0 0 1 .38 0l1.74.48ZM118.32 32.51l4.08-10 2.06.85-1.55 3.8a3.38 3.38 0 0 1 1.13-.26 2.9 2.9 0 0 1 1.24.24 2.27 2.27 0 0 1 .9.65 2.34 2.34 0 0 1 .52 1 3.79 3.79 0 0 1 .07 1.32 5.52 5.52 0 0 1-.42 1.56 5.19 5.19 0 0 1-.8 1.36 3.88 3.88 0 0 1-1.08.89 2.94 2.94 0 0 1-1.24.38 2.79 2.79 0 0 1-1.32-.22 2.53 2.53 0 0 1-.52-.28 2.59 2.59 0 0 1-.38-.35 2.31 2.31 0 0 1-.27-.42c-.07-.15-.13-.31-.19-.47l-.21.32a.47.47 0 0 1-.3.22.65.65 0 0 1-.35 0Zm5.6-4.09a1.93 1.93 0 0 0-.42-.12 1.76 1.76 0 0 0-.39 0 1.31 1.31 0 0 0-.38.09 2.48 2.48 0 0 0-.38.17l-1.2 2.93a1.36 1.36 0 0 0 .36.57 1.55 1.55 0 0 0 .53.34 1.28 1.28 0 0 0 .57.1 1.17 1.17 0 0 0 .57-.19 2.29 2.29 0 0 0 .54-.54 4.42 4.42 0 0 0 .5-.93 4.72 4.72 0 0 0 .29-.95 2.08 2.08 0 0 0 0-.69.85.85 0 0 0-.21-.47 1 1 0 0 0-.38-.31ZM132.23 30.57a3.85 3.85 0 0 1 1.07.86 2.77 2.77 0 0 1 .6 1.1 3 3 0 0 1 .09 1.28 3.93 3.93 0 0 1-.48 1.38l-.22.35a.63.63 0 0 1-.19.18.29.29 0 0 1-.2 0 .61.61 0 0 1-.23-.09l-3.77-2.08a2.05 2.05 0 0 0-.16 1.46 1.7 1.7 0 0 0 .83 1 2.5 2.5 0 0 0 .63.24l.54.06h.46a.83.83 0 0 1 .38.1.47.47 0 0 1 .26.37l.18 1a3.11 3.11 0 0 1-1 .2 3.88 3.88 0 0 1-.91-.05 5.33 5.33 0 0 1-.83-.24 6.18 6.18 0 0 1-.73-.34 4.18 4.18 0 0 1-1.17-.94 3.5 3.5 0 0 1-.68-1.24 3.67 3.67 0 0 1-.11-1.49 4.91 4.91 0 0 1 .58-1.67 4.18 4.18 0 0 1 .91-1.12 3.48 3.48 0 0 1 1.22-.67 3.42 3.42 0 0 1 1.4-.14 4 4 0 0 1 1.53.49Zm-.71 1.37a1.37 1.37 0 0 0-1.06-.16 1.85 1.85 0 0 0-.92.69l2.46 1.34a1.78 1.78 0 0 0 .19-.48 1.25 1.25 0 0 0 0-.51 1 1 0 0 0-.2-.47 1.28 1.28 0 0 0-.47-.41ZM132.34 39.43l4.24-6.15 1.09.76a1 1 0 0 1 .21.18.4.4 0 0 1 .1.18.41.41 0 0 1 0 .19 1.52 1.52 0 0 1-.09.25l-.29.64a3.69 3.69 0 0 1 1.32-.3 1.85 1.85 0 0 1 1.13.33 1.31 1.31 0 0 1 .54.67l-1.17 1.19a.35.35 0 0 1-.22.11.42.42 0 0 1-.22-.08 1.28 1.28 0 0 1-.22-.2c-.08-.07-.19-.16-.33-.26a1.53 1.53 0 0 0-1.67 0l-2.6 3.76ZM149.08 42.13a.87.87 0 0 1-.34 0 .52.52 0 0 1-.29-.14.82.82 0 0 1-.19-.32l-.16-.46a4.32 4.32 0 0 0-.25-.55 2.47 2.47 0 0 0-.45-.55 1.54 1.54 0 0 0-1-.47 1 1 0 0 0-.78.36.75.75 0 0 0-.21.52 1.93 1.93 0 0 0 .15.62 7 7 0 0 0 .37.71c.15.25.3.52.45.79s.27.56.39.85a3.08 3.08 0 0 1 .19.9 2.42 2.42 0 0 1-.14.94 2.8 2.8 0 0 1-.61 1 3.37 3.37 0 0 1-1.1.83 3.24 3.24 0 0 1-1.28.33 3.43 3.43 0 0 1-1.38-.25 4.5 4.5 0 0 1-1.36-.88 4.71 4.71 0 0 1-.66-.74 5.33 5.33 0 0 1-.54-.88 5.48 5.48 0 0 1-.36-.92 3.29 3.29 0 0 1-.16-.9l1.29-.36a.54.54 0 0 1 .31 0 .51.51 0 0 1 .28.15.73.73 0 0 1 .23.39l.16.56a5.64 5.64 0 0 0 .27.65 2.52 2.52 0 0 0 .54.68 1.57 1.57 0 0 0 .95.48 1.13 1.13 0 0 0 .9-.44.87.87 0 0 0 .25-.58 1.56 1.56 0 0 0-.13-.64 5.35 5.35 0 0 0-.37-.7c-.16-.24-.31-.5-.46-.76a5 5 0 0 1-.4-.84 2.45 2.45 0 0 1-.19-.9 2.65 2.65 0 0 1 .17-1 3.38 3.38 0 0 1 .69-1 2.87 2.87 0 0 1 1-.69 3 3 0 0 1 1.19-.27 3.46 3.46 0 0 1 1.31.25 4.15 4.15 0 0 1 1.31.84 4.64 4.64 0 0 1 .64.69 5.08 5.08 0 0 1 .49.75 4 4 0 0 1 .33.77 3.61 3.61 0 0 1 .16.78ZM152.48 47a4 4 0 0 1 .71 1.18 2.81 2.81 0 0 1 .19 1.24 3 3 0 0 1-.38 1.18 3.86 3.86 0 0 1-.93 1.13 2.82 2.82 0 0 1-.32.26.77.77 0 0 1-.24.1.34.34 0 0 1-.2 0 .85.85 0 0 1-.19-.16l-2.83-3.25a2.15 2.15 0 0 0-.65 1.32 1.7 1.7 0 0 0 .46 1.18 2.22 2.22 0 0 0 .51.44 3.65 3.65 0 0 0 .49.24l.42.16a1 1 0 0 1 .33.23.51.51 0 0 1 .12.43l-.18 1a3.41 3.41 0 0 1-1-.14 3.86 3.86 0 0 1-.83-.36 4.06 4.06 0 0 1-.7-.51 7.66 7.66 0 0 1-.57-.57 4.13 4.13 0 0 1-.77-1.28 3.2 3.2 0 0 1-.22-1.4 3.57 3.57 0 0 1 .41-1.44 4.59 4.59 0 0 1 1.11-1.37 4 4 0 0 1 1.24-.74 3.42 3.42 0 0 1 2.73.13 3.82 3.82 0 0 1 1.29 1Zm-1.14 1a1.33 1.33 0 0 0-.93-.51 1.77 1.77 0 0 0-1.1.33l1.83 2.1a2.23 2.23 0 0 0 .35-.4 1.32 1.32 0 0 0 .19-.46 1.16 1.16 0 0 0 0-.52 1.37 1.37 0 0 0-.34-.54ZM157.31 56.44a1 1 0 0 1-.27 0 .42.42 0 0 1-.21-.18.61.61 0 0 1-.11-.28v-.35a3.83 3.83 0 0 0-.08-.42 1.85 1.85 0 0 0-.26-.5 1.44 1.44 0 0 0-.53-.49 1.26 1.26 0 0 0-.63-.16 1.86 1.86 0 0 0-.73.16 3.69 3.69 0 0 0-.81.45 2.81 2.81 0 0 0-1.11 1.28 1.32 1.32 0 0 0 .18 1.27 1.5 1.5 0 0 0 .43.44 1.86 1.86 0 0 0 .4.2l.35.11a.51.51 0 0 1 .27.22.45.45 0 0 1 .08.44l-.29 1a3.32 3.32 0 0 1-.94-.23 3.36 3.36 0 0 1-.77-.42 3.59 3.59 0 0 1-.62-.54 6.55 6.55 0 0 1-.49-.61 3.33 3.33 0 0 1-.54-1.22 3.14 3.14 0 0 1 0-1.33 3.74 3.74 0 0 1 .56-1.31 4.57 4.57 0 0 1 1.19-1.17 4.7 4.7 0 0 1 1.37-.67 3.58 3.58 0 0 1 1.41-.11 3.21 3.21 0 0 1 1.33.49 4.41 4.41 0 0 1 1.79 2.49 3.72 3.72 0 0 1 0 1.45ZM161 59.11l-4.16 2.27a1.27 1.27 0 0 0-.63.63.9.9 0 0 0 .09.8 1.56 1.56 0 0 0 .46.53 2.48 2.48 0 0 0 .67.34l4.67-2.55 1.07 2-6.56 3.58-.66-1.21a.53.53 0 0 1 .07-.66l.31-.33a4.33 4.33 0 0 1-.54-.21 2.22 2.22 0 0 1-.49-.3 3.25 3.25 0 0 1-.44-.4 3.3 3.3 0 0 1-.37-.55 2.63 2.63 0 0 1-.39-1.05 2.48 2.48 0 0 1 .14-1 2.6 2.6 0 0 1 .56-.86 3.88 3.88 0 0 1 .92-.69l4.16-2.27ZM157.15 68l6.85-2.86.52 1.22a1.5 1.5 0 0 1 .08.27.7.7 0 0 1 0 .21.45.45 0 0 1-.11.17 1.15 1.15 0 0 1-.2.15l-.59.39a3.73 3.73 0 0 1 1.3.45 1.88 1.88 0 0 1 .76.89 1.24 1.24 0 0 1 .1.85l-1.63.37a.31.31 0 0 1-.24 0 .39.39 0 0 1-.15-.18c0-.08-.05-.17-.08-.28a1.67 1.67 0 0 0-.13-.4 1.51 1.51 0 0 0-1.4-.91L158 70.09ZM167.11 73.18 160 75.57l-.71-2.12 7.07-2.38Zm2-.4a1.27 1.27 0 0 1-.51 0 1.16 1.16 0 0 1-.48-.14 1.45 1.45 0 0 1-.68-.8 1.12 1.12 0 0 1-.06-.51 1.37 1.37 0 0 1 .13-.49 1.21 1.21 0 0 1 .3-.41 1.12 1.12 0 0 1 .44-.25 1.31 1.31 0 0 1 .52-.07 1.33 1.33 0 0 1 .48.14 1.23 1.23 0 0 1 .4.31 1.13 1.13 0 0 1 .26.45 1.45 1.45 0 0 1 .08.54 1.48 1.48 0 0 1-.13.5 1.21 1.21 0 0 1-.3.41 1.29 1.29 0 0 1-.43.32ZM161.07 79.66a2.61 2.61 0 0 1-.09-.94 1.85 1.85 0 0 1 .26-.78 1.89 1.89 0 0 1 .55-.58 2.67 2.67 0 0 1 .84-.36l3.73-1-.16-.61a.47.47 0 0 1 0-.31.4.4 0 0 1 .29-.2l.84-.22.52 1.09h1.87a.43.43 0 0 1 .46.38l.29 1.13-2.11.55.46 1.76-1.48.38-.45-1.75-3.59.93a.63.63 0 0 0-.38.23.42.42 0 0 0-.08.39.76.76 0 0 0 .08.2.62.62 0 0 0 .09.12l.09.1a.37.37 0 0 1 .05.11.24.24 0 0 1 0 .17.66.66 0 0 1-.11.16l-.86.92a2.83 2.83 0 0 1-.71-.82 3.7 3.7 0 0 1-.4-1.05ZM160.46 85.8a.94.94 0 0 1-.36-.19.86.86 0 0 1-.17-.44l-.26-1.65 3.21 1 6.26-4 .31 2a.63.63 0 0 1 0 .42.56.56 0 0 1-.24.24l-3 1.71a7.31 7.31 0 0 1-.84.42l.47.08.48.1 3.34.59a.59.59 0 0 1 .31.18.67.67 0 0 1 .16.34l.28 1.78ZM165.9 99.82a1.16 1.16 0 0 1 0 .18.51.51 0 0 1-.11.16l-1 1a3.94 3.94 0 0 1-1.23-1.6 5.44 5.44 0 0 1-.4-2.26 5.21 5.21 0 0 1 .42-2.14 4.76 4.76 0 0 1 1.14-1.6 5 5 0 0 1 1.7-1 6.2 6.2 0 0 1 2.14-.34 5.85 5.85 0 0 1 2.16.42 5 5 0 0 1 2.78 2.88 6.18 6.18 0 0 1 .37 2.23 5.49 5.49 0 0 1-.11 1.11 4.87 4.87 0 0 1-.3 1 4.36 4.36 0 0 1-.44.83 4.68 4.68 0 0 1-.57.67l-1.1-.83a1.09 1.09 0 0 1-.18-.19.45.45 0 0 1-.08-.3.54.54 0 0 1 .06-.25l.14-.24.18-.28a2.55 2.55 0 0 0 .19-.37 3.7 3.7 0 0 0 .14-.49 3.26 3.26 0 0 0 .06-.67 3 3 0 0 0-.22-1.21 2.62 2.62 0 0 0-.66-1 3.21 3.21 0 0 0-1-.62 4.31 4.31 0 0 0-1.39-.23 4.48 4.48 0 0 0-1.43.21 3.1 3.1 0 0 0-1.06.59 2.46 2.46 0 0 0-.66.88 2.57 2.57 0 0 0-.23 1.07 4 4 0 0 0 0 .61 2.71 2.71 0 0 0 .11.51 3 3 0 0 0 .2.45 5.06 5.06 0 0 0 .31.43.94.94 0 0 1 .12.18.54.54 0 0 1-.05.21ZM173.43 105.39l-10.72-1.13.29-2.26 10.72 1.13ZM169.49 109.35l-4.64-.93a1.34 1.34 0 0 0-.89.08.91.91 0 0 0-.44.67 1.55 1.55 0 0 0 0 .71 2.58 2.58 0 0 0 .3.69l5.22 1-.44 2.19-7.32-1.46.27-1.35a.52.52 0 0 1 .47-.47h.45c-.11-.17-.2-.34-.29-.51a2.45 2.45 0 0 1-.18-.54 2.22 2.22 0 0 1-.07-.59 2.54 2.54 0 0 1 .06-.66 2.61 2.61 0 0 1 .42-1 2.22 2.22 0 0 1 .73-.67 2.67 2.67 0 0 1 1-.3 3.49 3.49 0 0 1 1.15.06l4.65.92ZM160.93 113.71l10.24 3.35-.69 2.12-3.9-1.27a3.56 3.56 0 0 1 .33 1.11 2.8 2.8 0 0 1-.15 1.25 2.26 2.26 0 0 1-.58 1 2.34 2.34 0 0 1-1 .58 3.62 3.62 0 0 1-1.31.17 5.75 5.75 0 0 1-1.59-.3 5 5 0 0 1-1.41-.71 3.86 3.86 0 0 1-1-1 3 3 0 0 1-.47-1.21 2.91 2.91 0 0 1 .13-1.33 2.73 2.73 0 0 1 .24-.54 2.2 2.2 0 0 1 .33-.4 1.85 1.85 0 0 1 .39-.3l.51-.23-.33-.19a.54.54 0 0 1-.25-.28.58.58 0 0 1 0-.36Zm4.48 5.3a1.84 1.84 0 0 0 .09-.43 1.77 1.77 0 0 0 0-.4 1.65 1.65 0 0 0-.11-.36c-.06-.12-.12-.24-.2-.37l-3-1a1.4 1.4 0 0 0-.54.39 1.89 1.89 0 0 0-.3.56 1.44 1.44 0 0 0-.06.58 1.25 1.25 0 0 0 .23.55 2.46 2.46 0 0 0 .58.5 5.3 5.3 0 0 0 1.94.65 2.2 2.2 0 0 0 .69 0 1 1 0 0 0 .45-.24 1.1 1.1 0 0 0 .23-.44ZM91.75 69.13a2.33 2.33 0 0 1 2.46.76c.78 1.21-2.06 3.18-2.06 3.18s-.55 1.11-4.51.58-5.14-6.08-4.46-9.06A39.11 39.11 0 0 1 89 51s5.47-7.11-1-12.62c0 0 .54 1.62.13 2.37a3 3 0 0 0-1.47-1.35 8.26 8.26 0 0 1-.15 5.64s.3-2.3-.93-3.46a5.7 5.7 0 0 1-.46 3.4s0-.91-.58-1.18a3.5 3.5 0 0 1-.89 2.61 3.14 3.14 0 0 0 .12-1.72 13.92 13.92 0 0 1-1.88 4.23 4.34 4.34 0 0 0 .32-2.39A5.78 5.78 0 0 1 80.7 49a2.9 2.9 0 0 0 .3-1.37 4.74 4.74 0 0 1-1 1.69 1.67 1.67 0 0 0-.26-1.57 3.11 3.11 0 0 1-.65 1.75 2.54 2.54 0 0 0-.2-1.56 15.68 15.68 0 0 1-1.76 6.23 4.42 4.42 0 0 1-1.3-2.17 5.8 5.8 0 0 0-2.45 5.5A2.34 2.34 0 0 1 72 55.15s-1.7 3.37.19 8.33a2.53 2.53 0 0 1-1.48-2.06 9.26 9.26 0 0 0 .29 5.71s-.75 0-1.2-1.12c0 0-1.19 3 1.85 6.73a1.68 1.68 0 0 1-1.06-.58A10 10 0 0 0 73.63 78a3 3 0 0 1-1.54-.83 4.58 4.58 0 0 0 1.5 1.66s-.93-.21-1.2-.64c0 0-.17 1.3 1.55 2.84a6.42 6.42 0 0 1-2.24-1.45 3.18 3.18 0 0 0 1.52 2.38 2.2 2.2 0 0 1-1.37-.51s4.67 8.92 14.28 5.33a1.94 1.94 0 0 0 .19.85s-2.4.92-2.34 2.54c0 0 0 .49.34.62 0 0-.49.73 0 1.13a3 3 0 0 0 2.43 3.06s1.38.84.52 1.75c0 0-.5.4.23.47l-1 2.6s-4 3.49-1.21 6.86a9.21 9.21 0 0 1 2.09-4.77s.49.3.63 1.62c0 0 1.45-.47.5-3.39l.4-1.16s2.94 6.46 2.47 10.26a105.16 105.16 0 0 0-3.78 11.58 2.08 2.08 0 0 1 1.12-.35s-3.15 3.21-1.75 9.86a10.21 10.21 0 0 1 1.53-4.77s-.82 3.37.64 4.77c0 0-4 5.1-2 10.05a23.26 23.26 0 0 1 4-7.64 22.56 22.56 0 0 0-2.8 12.76A28.5 28.5 0 0 0 94 134.23a32.32 32.32 0 0 1-4.4 13.47s5.23-2.53 8.3-12.16a40.77 40.77 0 0 1-5.63 13.12s5-2.35 6.55-9.26c0 0 .45 6.62-2.12 11 0 0 6.91-4.75 6.52-12.54 0 0 3.53 5.61-2.2 14.93 0 0 6.8-4.4 6.33-12 0 0 .62 7.19-2 12 0 0 4.47-4.09 4.94-9.84a11.55 11.55 0 0 1-1.28 7s5.56-.56 3.71-14.51c0 0 4 7.51-.47 18.1 0 0 7.94-5.75 3.23-19.12a23.67 23.67 0 0 1 1.52 14.94s1.38-1 1.54-3.86a8.32 8.32 0 0 1-.27 3.47s6.06-4.19.94-16.05c0 0 1.85 3.88 3.3 4.92 0 0-1.25-12-8.3-17.19a12.71 12.71 0 0 0 5.1 2.16 76.76 76.76 0 0 0-12-9.46s1.11-.86 7.25 1.39a36.35 36.35 0 0 0-8.76-4.7 20.35 20.35 0 0 1-7.6-4.75 3.75 3.75 0 0 0-2.55-3.74 12.39 12.39 0 0 1 1.43-7.78s1.77 5.65 5.54 5.87c0 0-2.19-2.68-1.42-5.53 0 0-.17 6.86 6.51 4.75 0 0-3.79-2.09-3.41-4.75 0 0 1.3 6 7.46 3.59 0 0-3.92-1.23-4.66-3.71 0 0 4.31 4.66 6.86 1.62a6.68 6.68 0 0 1-4.34-1.88s4.21 2.22 6.71-.32a7.48 7.48 0 0 1-4.54-.83s4.37.86 6.8-1.63c0 0-3.46 1.26-4.83.55 0 0 5 .34 6.71-3.76a6.46 6.46 0 0 1-5.38 2s5.14-.9 6.42-5.62c0 0-2.06 2.09-4 2.06 0 0 5-1 4.52-8.7 0 0-.58 4.26-3.94 5 0 0 4.67-3.4 3.63-14.28 0 0 .31 6.06-2.12 9.26 0 0 2.54-9.86.73-14.63 0 0 .6 5.68-.66 7.76 0 0 1-9.11-2.12-13.66 0 0 .73 1.93-1 5.6 0 0 1.48-6-2.24-10.42 0 0 .54.54-.12 3.47 0 0-.15-7.58-5.71-12.35 0 0 1.72 3.07 1.27 5.52 0 0-.32-5.29-6.55-8.76a5.56 5.56 0 0 1 1.89 4.82 6.82 6.82 0 0 0-4.71-4.12s.83.56 1.35 3.24c0 0-1.29-2.16-5.25-3.28a2.7 2.7 0 0 1 1.35 2.66 7.71 7.71 0 0 0-3.59-2.24s.83 6.08 7.1 11.65 7.91 13.82 7.91 13.82 2.8 10-5.82 11.81c0 0-2.72-1.16-2.84-3.24s1.62-8.42-2.26-10c0 0 4.79-2.55 1.51-7.68 0 0 .52 1.71-1.12 4.81 0 0 .92-5.86-2.75-4.13 0 0 2.78.11.92 6.36 0 0-2.27-.75-3.21 1.08a3 3 0 0 0-3 1.93c-1.03 2.25.12 2.45 1.07 1.65ZM34.39 140.82l8.9-7.11.56.69a.39.39 0 0 1 0 .51l-.71.73a4.52 4.52 0 0 1 1.61.31 3.17 3.17 0 0 1 1.32 1 3 3 0 0 1 .61 1.21 2.68 2.68 0 0 1 0 1.32 3.92 3.92 0 0 1-.66 1.35 6.74 6.74 0 0 1-1.33 1.35 6 6 0 0 1-1.52.9 4.37 4.37 0 0 1-1.55.31 3.48 3.48 0 0 1-1.45-.32 3.59 3.59 0 0 1-1.23-1 3.24 3.24 0 0 1-.63-1.22 3 3 0 0 1 0-1.23L35.33 142Zm10.44-3.49a2.35 2.35 0 0 0-1.06-.79 3.55 3.55 0 0 0-1.38-.2l-3.21 2.57a2.44 2.44 0 0 0 0 1.19 2.72 2.72 0 0 0 .51 1 2.13 2.13 0 0 0 1.8.89 3.92 3.92 0 0 0 2.29-1 6.07 6.07 0 0 0 1-1 2.74 2.74 0 0 0 .5-.95 1.55 1.55 0 0 0 0-.88 2.17 2.17 0 0 0-.45-.83ZM43.08 146.65l6-6.06.61.6a.47.47 0 0 1 .17.3.58.58 0 0 1-.13.32l-.86 1a3.9 3.9 0 0 1 1.74-.23 2.4 2.4 0 0 1 1.43.7 2.55 2.55 0 0 1 .4.51 2.2 2.2 0 0 1 .22.53l-.92.66a.26.26 0 0 1-.34 0 1.26 1.26 0 0 1-.2-.31 2.21 2.21 0 0 0-.43-.53 1.94 1.94 0 0 0-1.24-.6 3.54 3.54 0 0 0-1.56.33l-3.8 3.86ZM56.51 147.11a4.27 4.27 0 0 1 1.15 1.27 3.66 3.66 0 0 1 .47 1.48 4 4 0 0 1-.21 1.59 5.33 5.33 0 0 1-.89 1.6 5.41 5.41 0 0 1-1.33 1.26 3.83 3.83 0 0 1-1.48.6 3.41 3.41 0 0 1-1.55-.09 4.19 4.19 0 0 1-1.52-.79 4.25 4.25 0 0 1-1.15-1.27 3.63 3.63 0 0 1-.48-1.48 4 4 0 0 1 .2-1.58 5.17 5.17 0 0 1 .89-1.61 5.24 5.24 0 0 1 1.39-1.26 4 4 0 0 1 1.49-.6 3.71 3.71 0 0 1 1.55.09 4.27 4.27 0 0 1 1.47.79Zm-4.64 6a2.17 2.17 0 0 0 2 .49 4 4 0 0 0 1.94-1.49 3.93 3.93 0 0 0 .95-2.25 2.16 2.16 0 0 0-1-1.82 2.61 2.61 0 0 0-1-.51 2 2 0 0 0-1 0 2.76 2.76 0 0 0-1 .51 5.27 5.27 0 0 0-1 1 5.42 5.42 0 0 0-.7 1.16 2.79 2.79 0 0 0-.24 1.09 2.07 2.07 0 0 0 .23 1 2.57 2.57 0 0 0 .82.82ZM58.72 159.2a2.05 2.05 0 0 1-1-1.29 2.23 2.23 0 0 1 .37-1.66l2.69-4.46-.88-.53a.4.4 0 0 1-.15-.19.32.32 0 0 1 .05-.26l.31-.51 1.28.57L63 148.8a.28.28 0 0 1 .2-.12.35.35 0 0 1 .24 0l.65.39-1.52 2.51 2.09 1.26-.56.93-2.1-1.21-2.64 4.37a1.11 1.11 0 0 0-.19.82.92.92 0 0 0 .44.57 1.53 1.53 0 0 0 .39.16H60.58a.35.35 0 0 1 .16 0 .25.25 0 0 1 .11.23v.84a2.85 2.85 0 0 1-1.09 0 3.15 3.15 0 0 1-1.04-.35ZM69.27 154.8a3.87 3.87 0 0 1 1.17.83 3.13 3.13 0 0 1 .71 1.13 3.38 3.38 0 0 1 .17 1.4 4.63 4.63 0 0 1-.43 1.57 1 1 0 0 1-.27.4.31.31 0 0 1-.31 0l-5.14-2.36a4.43 4.43 0 0 0-.39 1.36 3 3 0 0 0 .09 1.14 2.14 2.14 0 0 0 .51.89 2.92 2.92 0 0 0 .91.64 3.28 3.28 0 0 0 .94.28 4 4 0 0 0 .75 0l.57-.05a.69.69 0 0 1 .36 0 .34.34 0 0 1 .2.25l.16.67a3.1 3.1 0 0 1-.85.26 4 4 0 0 1-.92 0 5 5 0 0 1-.93-.16 5.12 5.12 0 0 1-.88-.32 4.05 4.05 0 0 1-1.35-1 3.51 3.51 0 0 1-.81-1.33 4 4 0 0 1-.17-1.64 5.66 5.66 0 0 1 .54-1.9 4.78 4.78 0 0 1 .94-1.4 3.91 3.91 0 0 1 1.27-.89 3.63 3.63 0 0 1 1.51-.28 4.05 4.05 0 0 1 1.65.51Zm-.43 1a2.28 2.28 0 0 0-1.81-.14 2.91 2.91 0 0 0-1.43 1.25l4.21 1.93a3.27 3.27 0 0 0 .27-.93 2.18 2.18 0 0 0-.07-.85 1.75 1.75 0 0 0-.42-.72 2.13 2.13 0 0 0-.75-.52ZM79 160.11a.56.56 0 0 1-.17.09.28.28 0 0 1-.2 0 .42.42 0 0 1-.23-.18c-.07-.09-.17-.2-.29-.33a3.71 3.71 0 0 0-.45-.39 2.93 2.93 0 0 0-.66-.3 2.55 2.55 0 0 0-1.11-.11 2 2 0 0 0-1 .37 2.77 2.77 0 0 0-.77.82 5.49 5.49 0 0 0-.81 2.59 3.2 3.2 0 0 0 .17 1.11 2 2 0 0 0 .56.82 2.7 2.7 0 0 0 1.81.66 2.4 2.4 0 0 0 .65-.1 2.56 2.56 0 0 0 .5-.16.49.49 0 0 1 .33 0 .3.3 0 0 1 .23.22l.24.65a3.21 3.21 0 0 1-1.62.53 4.87 4.87 0 0 1-1.77-.22 3.82 3.82 0 0 1-1.33-.73 3.35 3.35 0 0 1-.87-1.17 4 4 0 0 1-.35-1.55 5.54 5.54 0 0 1 .28-1.86 5.61 5.61 0 0 1 .78-1.59A4 4 0 0 1 74 158.1a3.66 3.66 0 0 1 1.47-.49 4.09 4.09 0 0 1 1.73.21 3.81 3.81 0 0 1 2.34 1.89ZM82 168a2 2 0 0 1-1.4-.86 2.25 2.25 0 0 1-.21-1.7l1-5.1-1-.2a.33.33 0 0 1-.21-.13.31.31 0 0 1 0-.26l.12-.58 1.4.1.86-2.51a.27.27 0 0 1 .15-.18.33.33 0 0 1 .24 0l.74.15-.58 2.88 2.39.48-.22 1.06-2.38-.48-1 5a1.09 1.09 0 0 0 .1.84.89.89 0 0 0 .6.38 1 1 0 0 0 .42 0 1.5 1.5 0 0 0 .32-.07l.23-.1h.17c.08 0 .13.08.18.18l.28.79a2.65 2.65 0 0 1-1 .37A3.17 3.17 0 0 1 82 168ZM96.1 169.29h-.67a.85.85 0 0 1-.35-.09.38.38 0 0 1-.16-.29l-.14-.8a7.18 7.18 0 0 1-.67.52 3.83 3.83 0 0 1-.69.37 3.71 3.71 0 0 1-.76.22 5 5 0 0 1-.89.05 3.34 3.34 0 0 1-.92-.18 2.29 2.29 0 0 1-.74-.45 2 2 0 0 1-.47-.72 2.34 2.34 0 0 1-.15-1 1.81 1.81 0 0 1 .32-1 2.35 2.35 0 0 1 .92-.79 5.82 5.82 0 0 1 1.65-.53 11.36 11.36 0 0 1 2.45-.13v-.66a2.35 2.35 0 0 0-.37-1.53 1.51 1.51 0 0 0-1.23-.56 2.57 2.57 0 0 0-.92.1 2.91 2.91 0 0 0-.66.28l-.49.29a.6.6 0 0 1-.39.12.39.39 0 0 1-.26-.09.47.47 0 0 1-.17-.2l-.25-.49a4.75 4.75 0 0 1 1.56-.95 4.67 4.67 0 0 1 1.82-.26 3.24 3.24 0 0 1 1.25.28 2.67 2.67 0 0 1 .91.7 2.84 2.84 0 0 1 .53 1 4.29 4.29 0 0 1 .13 1.32Zm-3.84-1.07a3.3 3.3 0 0 0 .72-.05 3.26 3.26 0 0 0 1.2-.54 3.71 3.71 0 0 0 .53-.46l.08-1.75a9.6 9.6 0 0 0-1.76.06 4.93 4.93 0 0 0-1.19.29 1.66 1.66 0 0 0-.68.47 1.06 1.06 0 0 0-.23.63 1.51 1.51 0 0 0 .08.59 1 1 0 0 0 .28.41 1.09 1.09 0 0 0 .43.25 1.79 1.79 0 0 0 .54.1ZM101.26 160.36a4.46 4.46 0 0 1 1 0 3.34 3.34 0 0 1 .91.29l2.3-.2v.56c0 .18-.09.31-.32.38l-1 .21a2.66 2.66 0 0 1 .39 1.19 2.7 2.7 0 0 1-.15 1.15 2.55 2.55 0 0 1-.59.92 3.05 3.05 0 0 1-1 .64 4.15 4.15 0 0 1-1.27.3 4.69 4.69 0 0 1-1.13-.05 1.36 1.36 0 0 0-.37.4.72.72 0 0 0-.11.4.56.56 0 0 0 .28.46 1.68 1.68 0 0 0 .67.17 4.66 4.66 0 0 0 .91 0l1.05-.08a6.14 6.14 0 0 1 1 0 3.41 3.41 0 0 1 .94.23 1.8 1.8 0 0 1 .69.53 1.76 1.76 0 0 1 .32 1 2.3 2.3 0 0 1-.18 1.09 2.76 2.76 0 0 1-.71 1 3.79 3.79 0 0 1-1.19.75 5.4 5.4 0 0 1-1.65.38 6.26 6.26 0 0 1-1.64 0 3.93 3.93 0 0 1-1.2-.4 2.21 2.21 0 0 1-.75-.66 1.65 1.65 0 0 1-.3-.83 1.51 1.51 0 0 1 .31-1.1 2.64 2.64 0 0 1 1-.79 1.66 1.66 0 0 1-.61-.4 1.24 1.24 0 0 1-.28-.73 1.29 1.29 0 0 1 0-.39 1.55 1.55 0 0 1 .17-.41 2.64 2.64 0 0 1 .31-.39 1.94 1.94 0 0 1 .44-.35 2.62 2.62 0 0 1-1.06-.85 2.53 2.53 0 0 1-.47-1.33 2.7 2.7 0 0 1 .15-1.15 2.5 2.5 0 0 1 .59-.92 3 3 0 0 1 1-.63 4.21 4.21 0 0 1 1.55-.39Zm.37 4.48a2.54 2.54 0 0 0 .79-.19 1.66 1.66 0 0 0 .55-.4 1.45 1.45 0 0 0 .31-.57 2 2 0 0 0 .06-.7 1.65 1.65 0 0 0-.58-1.2 1.9 1.9 0 0 0-1.41-.35 1.86 1.86 0 0 0-1.35.57 1.62 1.62 0 0 0-.37 1.27 1.9 1.9 0 0 0 .18.69 1.42 1.42 0 0 0 .4.51 1.83 1.83 0 0 0 .61.3 2.49 2.49 0 0 0 .81.07Zm3 4.35a.75.75 0 0 0-.22-.5 1.15 1.15 0 0 0-.5-.27 3.57 3.57 0 0 0-.71-.1 7.79 7.79 0 0 0-.83 0l-.89.07a2.8 2.8 0 0 1-.87 0 2.52 2.52 0 0 0-.73.62 1.11 1.11 0 0 0-.23.81 1 1 0 0 0 .19.52 1.37 1.37 0 0 0 .48.39 2.91 2.91 0 0 0 .78.22 4.89 4.89 0 0 0 1.09 0 4.63 4.63 0 0 0 1.07-.2 2.83 2.83 0 0 0 .78-.38 1.67 1.67 0 0 0 .47-.53 1.17 1.17 0 0 0 .15-.65ZM114.54 166.93l-.65.14a.89.89 0 0 1-.36 0 .38.38 0 0 1-.23-.25l-.33-.73c-.18.24-.35.46-.53.66a3.64 3.64 0 0 1-.57.54 4.18 4.18 0 0 1-.68.4 4.71 4.71 0 0 1-.85.27 3 3 0 0 1-.94.05 2.07 2.07 0 0 1-.82-.25 2 2 0 0 1-.65-.58 2.45 2.45 0 0 1-.39-.94 1.84 1.84 0 0 1 .07-1 2.27 2.27 0 0 1 .7-1 5.5 5.5 0 0 1 1.45-.92 10.89 10.89 0 0 1 2.35-.74l-.14-.65a2.31 2.31 0 0 0-.74-1.39 1.56 1.56 0 0 0-1.33-.24 2.73 2.73 0 0 0-.87.33 3.88 3.88 0 0 0-.57.44l-.39.4a.69.69 0 0 1-.36.22.49.49 0 0 1-.27 0 .6.6 0 0 1-.22-.16l-.36-.41a4.82 4.82 0 0 1 1.27-1.31 4.64 4.64 0 0 1 1.7-.71 3.14 3.14 0 0 1 1.29 0 2.58 2.58 0 0 1 1 .44 2.77 2.77 0 0 1 .77.88 4.14 4.14 0 0 1 .46 1.24Zm-4-.08a3.72 3.72 0 0 0 .69-.23 3.12 3.12 0 0 0 .56-.35 4.17 4.17 0 0 0 .47-.47 5.35 5.35 0 0 0 .4-.58l-.37-1.71a10.6 10.6 0 0 0-1.69.49 4.94 4.94 0 0 0-1.07.58 1.55 1.55 0 0 0-.54.63 1 1 0 0 0-.07.67 1.45 1.45 0 0 0 .23.55 1.16 1.16 0 0 0 .37.33 1.22 1.22 0 0 0 .47.13 2.07 2.07 0 0 0 .56-.04ZM115.8 154.83a1 1 0 0 1 0 .41 1 1 0 0 1-.12.4 1.11 1.11 0 0 1-.25.32 1 1 0 0 1-.37.2 1 1 0 0 1-.41.05 1.27 1.27 0 0 1-.39-.12 1.37 1.37 0 0 1-.33-.25 1.2 1.2 0 0 1-.2-.37 1 1 0 0 1 0-.42 1.14 1.14 0 0 1 .11-.4 1.31 1.31 0 0 1 .25-.32 1 1 0 0 1 .37-.2 1.13 1.13 0 0 1 .41 0 1.42 1.42 0 0 1 .4.12 1.35 1.35 0 0 1 .33.26 1.23 1.23 0 0 1 .2.32Zm.48 2.65 2.57 8.11-1.42.45-2.57-8.11ZM121.93 164.59l-3.38-7.81.82-.36a.38.38 0 0 1 .49.13l.48.8a4.58 4.58 0 0 1 .74-1.4 3.45 3.45 0 0 1 2.52-1.26 2.45 2.45 0 0 1 1.08.25 3 3 0 0 1 .9.72 4.57 4.57 0 0 1 .7 1.14l2.15 5-1.37.59-2.15-5a2.33 2.33 0 0 0-1-1.2 1.63 1.63 0 0 0-1.44.05 2.54 2.54 0 0 0-1 .78 4.53 4.53 0 0 0-.63 1.22l2.5 5.75ZM131.67 151.74a.32.32 0 0 1-.18.31.48.48 0 0 1-.29.07h-.44a3.72 3.72 0 0 0-.58.1 2.42 2.42 0 0 0-.7.3 2.18 2.18 0 0 0-.54.43 1.75 1.75 0 0 0-.31.49 1.25 1.25 0 0 0-.08.5 1 1 0 0 0 .15.47.81.81 0 0 0 .44.38 1.74 1.74 0 0 0 .62.07 3.63 3.63 0 0 0 .75-.12l.83-.18c.29-.06.57-.11.86-.15a2.82 2.82 0 0 1 .82 0 1.86 1.86 0 0 1 .74.28 2 2 0 0 1 .61.66 2.83 2.83 0 0 1 .37 1 2.37 2.37 0 0 1-.09 1.06 3.14 3.14 0 0 1-.58 1 4.06 4.06 0 0 1-1.08.88 4.34 4.34 0 0 1-1.53.57 4.08 4.08 0 0 1-1.44 0v-.68a.51.51 0 0 1 .06-.22.44.44 0 0 1 .18-.18.54.54 0 0 1 .33-.06h.48a3.12 3.12 0 0 0 .64-.07 2.78 2.78 0 0 0 .79-.33 2.32 2.32 0 0 0 .6-.49 1.48 1.48 0 0 0 .31-.54 1.3 1.3 0 0 0 .06-.55 1.37 1.37 0 0 0-.19-.51.86.86 0 0 0-.46-.41 1.55 1.55 0 0 0-.63-.09 4.46 4.46 0 0 0-.75.12l-.84.19a6 6 0 0 1-.85.15 2.87 2.87 0 0 1-.83 0 1.84 1.84 0 0 1-.76-.3 2 2 0 0 1-.63-.7 2.29 2.29 0 0 1-.31-.91 2.36 2.36 0 0 1 .11-1 2.69 2.69 0 0 1 .54-1 3.81 3.81 0 0 1 1-.83 4.08 4.08 0 0 1 1.44-.53 3.45 3.45 0 0 1 1.36 0ZM140 154.74a2 2 0 0 1-1.58.47 2.25 2.25 0 0 1-1.4-1l-3.13-4.21-.83.6a.3.3 0 0 1-.45-.07l-.35-.48 1-1-1.26-2.26a.32.32 0 0 1 0-.23.41.41 0 0 1 .14-.21l.61-.44 1.74 2.36 2-1.44.64.87-2 1.44 3 4.12a1.13 1.13 0 0 0 .68.49.94.94 0 0 0 .69-.19 1.22 1.22 0 0 0 .3-.3 1.55 1.55 0 0 0 .15-.28 1.86 1.86 0 0 0 .09-.24.49.49 0 0 1 .09-.15.29.29 0 0 1 .26 0l.77.31a2.66 2.66 0 0 1-.41 1 3.13 3.13 0 0 1-.75.84ZM150.35 145.18l-.47.47a.8.8 0 0 1-.29.2.35.35 0 0 1-.33-.07l-.68-.44a7.23 7.23 0 0 1-.08.85 3.24 3.24 0 0 1-.18.76 3.9 3.9 0 0 1-.35.71 4.33 4.33 0 0 1-.57.69 3.06 3.06 0 0 1-.75.56 2.08 2.08 0 0 1-.82.24 2 2 0 0 1-.83-.15 2.54 2.54 0 0 1-.85-.57 2 2 0 0 1-.5-.89 2.44 2.44 0 0 1 0-1.22 5.85 5.85 0 0 1 .72-1.56 10 10 0 0 1 1.55-1.9l-.48-.47a2.3 2.3 0 0 0-1.37-.76 1.53 1.53 0 0 0-1.24.53 2.64 2.64 0 0 0-.55.75 3.72 3.72 0 0 0-.24.68l-.11.56a.64.64 0 0 1-.17.37.41.41 0 0 1-.25.13.46.46 0 0 1-.26 0l-.53-.14a5 5 0 0 1 .34-1.8 4.8 4.8 0 0 1 1-1.52 3.26 3.26 0 0 1 1-.74 2.61 2.61 0 0 1 1.12-.2 2.78 2.78 0 0 1 1.13.31 4.49 4.49 0 0 1 1.07.78ZM147 147.3a2.93 2.93 0 0 0 .45-.58 2.4 2.4 0 0 0 .27-.59 2.79 2.79 0 0 0 .14-.65 5.35 5.35 0 0 0 0-.7l-1.25-1.24a10.91 10.91 0 0 0-1.14 1.34 5.31 5.31 0 0 0-.58 1.08 1.67 1.67 0 0 0-.11.82 1.09 1.09 0 0 0 .31.6 1.41 1.41 0 0 0 .49.33 1.11 1.11 0 0 0 .5.07 1.08 1.08 0 0 0 .47-.15 2.15 2.15 0 0 0 .45-.33ZM143.63 133.88l9.58 7.83-.94 1.16-9.59-7.87ZM146 130.77l10 7.23-.87 1.22-10.05-7.22Z" fill="#fff"/></svg>
